<?xml version="1.0" encoding="UTF-8" standalone="no"?>
<!-- Created with Inkscape (http://www.inkscape.org/) -->

<svg
   width="250"
   height="70"
   viewBox="0 0 66.145833 18.520833"
   version="1.1"
   id="svg5"
   inkscape:version="1.1.2 (b8e25be8, 2022-02-05)"
   sodipodi:docname="logo.svg.2022_06_18_10_47_34.0.svg"
   xmlns:inkscape="http://www.inkscape.org/namespaces/inkscape"
   xmlns:sodipodi="http://sodipodi.sourceforge.net/DTD/sodipodi-0.dtd"
   xmlns="http://www.w3.org/2000/svg"
   xmlns:svg="http://www.w3.org/2000/svg">
  <sodipodi:namedview
     id="namedview7"
     pagecolor="#ffffff"
     bordercolor="#666666"
     borderopacity="1.0"
     inkscape:pageshadow="2"
     inkscape:pageopacity="0.0"
     inkscape:pagecheckerboard="0"
     inkscape:document-units="mm"
     showgrid="false"
     units="px"
     inkscape:zoom="6.12"
     inkscape:cx="69.362745"
     inkscape:cy="41.25817"
     inkscape:window-width="2560"
     inkscape:window-height="1027"
     inkscape:window-x="1539"
     inkscape:window-y="25"
     inkscape:window-maximized="0"
     inkscape:current-layer="layer1"
     showguides="true"
     inkscape:guide-bbox="true">
    <sodipodi:guide
       position="48.679874,5.9401551"
       orientation="0,-1"
       id="guide6909" />
  </sodipodi:namedview>
  <defs
     id="defs2">
    <inkscape:perspective
       sodipodi:type="inkscape:persp3d"
       inkscape:vp_x="0 : -129.97917 : 1"
       inkscape:vp_y="0 : 999.99995 : 0"
       inkscape:vp_z="210.00001 : -129.97917 : 1"
       inkscape:persp3d-origin="105 : -179.47916 : 1"
       id="perspective128" />
  </defs>
  <g
     inkscape:label="Camada 1"
     inkscape:groupmode="layer"
     id="layer1">
    <g
       aria-label="SimplificaSUS"
       id="text1618"
       style="font-size:7.76111px;line-height:1.25;stroke-width:0.264583"
       transform="matrix(1.252019,0,0,1.252019,-10.715778,-3.6812619)">
      <path
         d="m 11.762145,8.5700244 q -0.155222,-0.2250722 -0.4191,-0.3259666 -0.256116,-0.1086556 -0.543277,-0.1086556 -0.170745,0 -0.333728,0.038806 -0.155222,0.038806 -0.287161,0.1241777 -0.124178,0.085372 -0.2017889,0.2250722 -0.077611,0.1319389 -0.077611,0.3182055 0,0.2794 0.1940279,0.4268611 0.194028,0.1474611 0.481189,0.2561166 0.287161,0.1086555 0.628649,0.20955 0.341489,0.1008944 0.62865,0.2793997 0.287161,0.178505 0.481189,0.473428 0.194028,0.294922 0.194028,0.783872 0,0.442383 -0.162983,0.776111 -0.162984,0.325966 -0.442384,0.543277 -0.271638,0.217311 -0.636411,0.325967 -0.364772,0.108655 -0.76835,0.108655 -0.5122327,0 -0.9856604,-0.170744 Q 9.0379958,12.683413 8.696507,12.279835 l 0.7373054,-0.714022 q 0.1785056,0.271639 0.4656666,0.426861 0.294922,0.147461 0.620889,0.147461 0.170744,0 0.341489,-0.04657 0.170744,-0.04657 0.310444,-0.1397 0.1397,-0.09313 0.225072,-0.232833 0.08537,-0.147461 0.08537,-0.333728 0,-0.302683 -0.194027,-0.465666 Q 11.09469,10.758657 10.807529,10.650002 10.520368,10.533585 10.178879,10.432691 9.8373901,10.331796 9.5502291,10.161052 9.263068,9.9825464 9.0690403,9.6953853 8.8750125,9.4004631 8.8750125,8.9115132 q 0,-0.426861 0.1707444,-0.7373054 0.1785056,-0.3104444 0.4579055,-0.5122333 0.2871611,-0.2095499 0.6519336,-0.3104444 0.364772,-0.1008944 0.745066,-0.1008944 0.434622,0 0.8382,0.1319389 0.411339,0.1319389 0.737305,0.4346221 z"
         style="font-weight:900;font-family:Avenir;-inkscape-font-specification:'Avenir Heavy';fill:#ffffff"
         id="path8162" />
      <path
         d="m 13.455765,9.1598687 h 0.931333 V 12.885201 H 13.455765 Z M 13.323826,7.8948078 q 0,-0.2250722 0.162984,-0.3880555 0.170744,-0.1707444 0.426861,-0.1707444 0.256116,0 0.426861,0.1629833 0.178505,0.1552222 0.178505,0.3958166 0,0.2405944 -0.178505,0.4035777 -0.170745,0.1552222 -0.426861,0.1552222 -0.256117,0 -0.426861,-0.1629833 Q 13.323826,8.11988 13.323826,7.8948078 Z"
         style="font-weight:900;font-family:Avenir;-inkscape-font-specification:'Avenir Heavy';fill:#ffffff"
         id="path8164" />
      <path
         d="m 15.417507,9.1598687 h 0.884767 V 9.741952 h 0.01552 q 0.124178,-0.2638778 0.395817,-0.4656666 0.2794,-0.20955 0.745066,-0.20955 0.877006,0 1.164167,0.6907388 0.201789,-0.3570111 0.504472,-0.5199944 0.302683,-0.1707444 0.721783,-0.1707444 0.372533,0 0.62865,0.1241778 0.256117,0.1241777 0.411339,0.3414888 0.162983,0.2173111 0.232833,0.512233 0.06985,0.287161 0.06985,0.620889 v 2.219677 H 20.26044 V 10.77418 q 0,-0.170745 -0.03104,-0.325967 -0.03104,-0.162983 -0.108655,-0.2794 -0.07761,-0.124178 -0.20955,-0.1940277 -0.131939,-0.06985 -0.341489,-0.06985 -0.217311,0 -0.372533,0.085372 -0.147461,0.077611 -0.248356,0.2173117 -0.09313,0.131938 -0.1397,0.310444 -0.0388,0.170744 -0.0388,0.34925 v 2.017888 h -0.931333 v -2.219677 q 0,-0.34925 -0.147462,-0.551039 -0.147461,-0.2095499 -0.488949,-0.2095499 -0.232834,0 -0.395817,0.077611 -0.155222,0.077611 -0.263878,0.2095499 -0.100894,0.131939 -0.147461,0.302684 -0.04657,0.170744 -0.04657,0.357011 v 2.03341 h -0.931333 z"
         style="font-weight:900;font-family:Avenir;-inkscape-font-specification:'Avenir Heavy';fill:#ffffff"
         id="path8166" />
      <path
         d="m 22.201809,9.1598687 h 0.884766 v 0.5587999 h 0.01552 q 0.201789,-0.3414888 0.543278,-0.496711 0.341489,-0.1552222 0.737306,-0.1552222 0.426861,0 0.768349,0.1552222 0.341489,0.1474611 0.582084,0.4113388 0.240594,0.2638778 0.364772,0.6208886 0.124178,0.357011 0.124178,0.76835 0,0.411339 -0.131939,0.76835 -0.131939,0.357011 -0.372534,0.620889 -0.232833,0.263877 -0.566561,0.4191 -0.333727,0.147461 -0.729544,0.147461 -0.263878,0 -0.465667,-0.05433 -0.201788,-0.05433 -0.357011,-0.1397 -0.155222,-0.08537 -0.263877,-0.178505 -0.108656,-0.100895 -0.178506,-0.194028 h -0.02328 v 2.24296 H 22.20181 Z m 3.088921,1.8626663 q 0,-0.217311 -0.07761,-0.4191 -0.06985,-0.201789 -0.217311,-0.357011 -0.1397,-0.155222 -0.341489,-0.2483554 -0.201788,-0.093133 -0.457905,-0.093133 -0.256117,0 -0.457906,0.093133 -0.201788,0.093133 -0.34925,0.2483554 -0.1397,0.155222 -0.217311,0.357011 -0.06985,0.201789 -0.06985,0.4191 0,0.217311 0.06985,0.4191 0.07761,0.201789 0.217311,0.357011 0.147462,0.155222 0.34925,0.248356 0.201789,0.09313 0.457906,0.09313 0.256117,0 0.457905,-0.09313 0.201789,-0.09313 0.341489,-0.248356 0.147461,-0.155222 0.217311,-0.357011 0.07761,-0.201789 0.07761,-0.4191 z"
         style="font-weight:900;font-family:Avenir;-inkscape-font-specification:'Avenir Heavy';fill:#ffffff"
         id="path8168" />
      <path
         d="m 27.1135,7.0178024 h 0.931333 V 12.885201 H 27.1135 Z"
         style="font-weight:900;font-family:Avenir;-inkscape-font-specification:'Avenir Heavy';fill:#ffffff"
         id="path8170" />
      <path
         d="M 29.133447,9.1598687 H 30.06478 V 12.885201 H 29.133447 Z M 29.001508,7.8948078 q 0,-0.2250722 0.162983,-0.3880555 0.170744,-0.1707444 0.426861,-0.1707444 0.256117,0 0.426861,0.1629833 0.178506,0.1552222 0.178506,0.3958166 0,0.2405944 -0.178506,0.4035777 -0.170744,0.1552222 -0.426861,0.1552222 -0.256117,0 -0.426861,-0.1629833 Q 29.001508,8.11988 29.001508,7.8948078 Z"
         style="font-weight:900;font-family:Avenir;-inkscape-font-specification:'Avenir Heavy';fill:#ffffff"
         id="path8172" />
      <path
         d="m 31.463844,9.9515019 h -0.76835 V 9.1598687 h 0.76835 V 8.6321133 q 0,-0.3880555 0.05433,-0.6984999 0.05433,-0.3182055 0.201789,-0.5432777 0.155222,-0.2250722 0.426861,-0.3414888 0.271638,-0.1241778 0.706261,-0.1241778 0.318205,0 0.589844,0.054328 l -0.06209,0.7916332 q -0.100894,-0.023283 -0.194028,-0.038806 -0.09313,-0.015522 -0.194027,-0.015522 -0.194028,0 -0.310445,0.062089 -0.116416,0.062089 -0.186266,0.1707444 -0.06209,0.1008944 -0.08537,0.2405944 -0.01552,0.1397 -0.01552,0.2949222 V 9.1598687 H 33.25666 V 9.9515019 H 32.395177 V 12.885201 H 31.463844 Z M 33.862027,9.1598687 H 34.79336 V 12.885201 H 33.862027 Z M 33.737849,7.8948078 q 0,-0.2250722 0.162983,-0.3880555 0.170745,-0.1707444 0.426861,-0.1707444 0.256117,0 0.426861,0.1629833 0.178506,0.1552222 0.178506,0.3958166 0,0.2405944 -0.178506,0.4035777 -0.170744,0.1552222 -0.426861,0.1552222 -0.256116,0 -0.426861,-0.1629833 Q 33.737849,8.11988 33.737849,7.8948078 Z"
         style="font-weight:900;font-family:Avenir;-inkscape-font-specification:'Avenir Heavy';fill:#ffffff"
         id="path8174" />
      <path
         d="M 38.28392,10.277469 Q 38.120937,10.106724 37.942431,10.00583 37.763926,9.9049353 37.577659,9.9049353 q -0.256116,0 -0.457905,0.093133 -0.201789,0.093133 -0.34925,0.2483557 -0.1397,0.155222 -0.217311,0.357011 -0.06985,0.201789 -0.06985,0.4191 0,0.217311 0.06985,0.4191 0.07761,0.201789 0.217311,0.357011 0.147461,0.155222 0.34925,0.248356 0.201789,0.09313 0.457905,0.09313 0.217311,0 0.403578,-0.08537 0.186267,-0.09313 0.318205,-0.263878 l 0.620889,0.667455 q -0.1397,0.1397 -0.325966,0.240595 -0.178506,0.100894 -0.364773,0.162983 -0.186266,0.06209 -0.357011,0.08537 -0.170744,0.03104 -0.294922,0.03104 -0.4191,0 -0.791633,-0.1397 -0.372533,-0.1397 -0.644172,-0.395817 -0.271639,-0.256116 -0.434622,-0.613127 -0.155222,-0.364773 -0.155222,-0.807156 0,-0.442383 0.155222,-0.799394 0.162983,-0.3647727 0.434622,-0.6208893 0.271639,-0.2561166 0.644172,-0.3958166 0.372533,-0.1397 0.791633,-0.1397 0.357011,0 0.714022,0.1397 0.364773,0.1319389 0.636411,0.426861 z"
         style="font-weight:900;font-family:Avenir;-inkscape-font-specification:'Avenir Heavy';fill:#ffffff"
         id="path8176" />
      <path
         d="m 41.810738,12.372968 h -0.02328 q -0.201789,0.318206 -0.512233,0.465667 -0.310445,0.1397 -0.682978,0.1397 -0.256117,0 -0.504472,-0.06985 -0.240594,-0.06985 -0.434622,-0.20955 -0.186267,-0.1397 -0.302683,-0.34925 -0.116417,-0.20955 -0.116417,-0.48895 0,-0.302683 0.108655,-0.512233 0.108656,-0.217311 0.287161,-0.357011 0.186267,-0.147461 0.426862,-0.232834 0.240594,-0.08537 0.496711,-0.124177 0.263877,-0.04657 0.527755,-0.05433 0.263878,-0.01552 0.496711,-0.01552 h 0.232833 v -0.100895 q 0,-0.34925 -0.240594,-0.5199942 -0.240594,-0.1785055 -0.613128,-0.1785055 -0.294922,0 -0.551039,0.1086555 -0.256116,0.1008945 -0.442383,0.2794002 l -0.48895,-0.4889501 q 0.310445,-0.3182055 0.721783,-0.4579055 0.4191,-0.1397 0.861484,-0.1397 0.395816,0 0.667455,0.093133 0.271639,0.085372 0.450145,0.2250722 0.178505,0.1397 0.271638,0.3259666 0.100895,0.1785056 0.1397,0.3647728 0.04657,0.186266 0.05433,0.364772 0.0078,0.170744 0.0078,0.302683 v 2.142066 h -0.8382 z m -0.05433,-1.156405 H 41.56238 q -0.194028,0 -0.434622,0.01552 -0.240595,0.01552 -0.457906,0.07761 -0.20955,0.05433 -0.357011,0.170745 -0.147461,0.108655 -0.147461,0.310444 0,0.131939 0.05433,0.225072 0.06209,0.08537 0.155222,0.147461 0.09313,0.06209 0.20955,0.09313 0.116417,0.02328 0.232833,0.02328 0.481189,0 0.706261,-0.225072 0.232834,-0.232834 0.232834,-0.62865 z"
         style="font-weight:900;font-family:Avenir;-inkscape-font-specification:'Avenir Heavy';fill:#ffffff"
         id="path8178" />
    </g>
    <path
       style="fill:#000000;stroke-width:0.0347808"
       d="m 16.96746,18.620392 c 9.17735,-0.0048 24.194831,-0.0048 33.372181,0 9.17735,0.0048 1.668609,0.0088 -16.686091,0.0088 -18.354699,0 -25.8634403,-0.0039 -16.68609,-0.0088 z m 0,-37.52849 c 9.17735,-0.0048 24.194831,-0.0048 33.372181,0 9.17735,0.0048 1.668609,0.0088 -16.686091,0.0088 -18.354699,0 -25.8634403,-0.0039 -16.68609,-0.0088 z"
       id="path242" />
    <path
       style="fill:#000000;stroke-width:0.0347808"
       id="path222"
       d="" />
    <path
       style="fill:#ffffff;stroke:none;stroke-width:0.0357821"
       d="m 44.664618,12.580678 h 2.146933 c 0.552875,0 1.082054,0.02455 1.6102,-0.167997 1.492658,-0.544212 1.908445,-2.5524182 1.070247,-3.8038316 -0.450356,-0.672384 -1.243825,-0.821166 -1.964802,-1.061551 -0.369266,-0.123091 -0.773566,-0.301179 -0.747563,-0.763342 0.01721,-0.305903 0.280569,-0.553122 0.568651,-0.619713 0.612842,-0.141697 1.37504,-0.02437 2.003806,-0.02437 v -0.96612 c -1.070391,0 -2.45514,-0.226895 -3.470878,0.151323 -1.449223,0.539632 -1.83105,2.343414 -0.872524,3.498321 0.519594,0.6260457 1.390679,0.7378297 2.124903,0.9671577 0.422846,0.1321087 0.784956,0.4512149 0.748062,0.9294449 -0.0833,1.079693 -1.737,0.751427 -2.465609,0.751427 -0.16837,0 -0.556819,-0.07193 -0.694055,0.03678 -0.169886,0.134541 -0.05737,0.863425 -0.05737,1.072464 m 12.559562,0 h 2.146933 c 0.505676,0 1.015108,0.03478 1.502854,-0.125917 1.537602,-0.506603 2.132626,-2.4848952 1.239501,-3.8101266 -0.477336,-0.708309 -1.281148,-0.822383 -2.026707,-1.102343 -0.338535,-0.127135 -0.761231,-0.280103 -0.746667,-0.722551 0.01052,-0.318211 0.266112,-0.584825 0.567756,-0.650557 0.622468,-0.135579 1.367454,-0.0293 2.003806,-0.0293 v -0.96612 c -1.109786,0 -2.533025,-0.231941 -3.578224,0.195155 -1.308198,0.534551 -1.70717,2.308062 -0.811327,3.383068 0.520346,0.6244347 1.319398,0.7775827 2.063704,0.9914887 0.484206,0.1391937 0.90676,0.4077759 0.861386,0.9765349 -0.08613,1.078977 -1.742809,0.751426 -2.471586,0.751426 -0.168353,0 -0.556806,-0.07193 -0.694067,0.03678 -0.169858,0.134541 -0.05736,0.863425 -0.05736,1.072465 M 50.604466,5.2453204 v 3.792917 c 0,0.7167887 -0.08806,1.4752296 0.209757,2.1469336 0.906471,2.044562 4.155282,2.199248 5.289543,0.286258 0.433179,-0.730601 0.368988,-1.5449342 0.368988,-2.3616276 v -3.864481 h -1.073468 v 3.614005 c 0,0.5491137 0.103949,1.2180276 -0.01893,1.7533296 -0.126491,0.55094 -0.717183,0.953955 -1.269231,0.953955 -0.598208,0 -1.164461,-0.431641 -1.271522,-1.025519 -0.09987,-0.5537662 -0.01664,-1.1907979 -0.01664,-1.7533296 v -3.542441 h -2.218497"
       id="path5043"
       sodipodi:nodetypes="cscccccccssccscccscccccccccccscccsccsccscscscc" />
    <g
       aria-label="Painel"
       id="text7784"
       style="font-size:4.23333px;line-height:1.25;opacity:0.5;fill:#ffffff;stroke-width:0.264583">
      <path
         d="m 12.185359,3.9733582 q 0,0.3640663 -0.270933,0.5884328 -0.270933,0.2201332 -0.719666,0.2201332 -0.1143,0 -0.321733,-0.029633 v 1.0837324 q 0,0.2328331 0.02963,0.2751664 0.03387,0.0381 0.237067,0.046567 0.1143,-0.00423 0.1143,0.0381 0,0.0381 -0.06773,0.0381 h -0.0635 q -0.02117,0 -0.198967,-0.00423 -0.173566,-0.00423 -0.359833,-0.00423 l -0.4953,0.00423 q -0.1396994,0 -0.160866,-0.00847 -0.021167,-0.00847 -0.021167,-0.0254 0,-0.033867 0.067733,-0.033867 0.2074334,-0.00423 0.2455334,-0.0381 0.04233,-0.033867 0.04233,-0.1947332 V 3.753225 q 0,-0.2709331 -0.02117,-0.3259664 -0.02117,-0.055033 -0.215899,-0.055033 -0.1143004,0 -0.1143004,-0.033867 0,-0.0381 0.1058333,-0.0381 l 1.2107321,-0.00423 q 0.4445,0 0.664633,0.1354666 0.313266,0.1947331 0.313266,0.5418662 z m -0.681566,0.0254 q 0,-0.6265329 -0.393699,-0.6265329 -0.237067,0 -0.237067,0.2074332 v 1.1091324 q 0.173567,0 0.237067,-0.0127 0.122766,-0.021167 0.211666,-0.097367 0.182033,-0.1608665 0.182033,-0.5799661 z"
         style="font-weight:bold;font-family:'Bodoni 72';-inkscape-font-specification:'Bodoni 72 Bold'"
         id="path14862" />
      <path
         d="m 14.210809,6.0011231 q 0,0.033867 -0.06773,0.093133 -0.182033,0.1650999 -0.448733,0.1650999 -0.173567,0 -0.254,-0.071967 -0.0762,-0.071967 -0.1016,-0.2582331 -0.1905,0.3471331 -0.520699,0.3471331 -0.182034,0 -0.296333,-0.1142999 -0.110067,-0.1142999 -0.110067,-0.2963331 0,-0.5333996 0.914399,-0.6307662 v -0.0889 q 0,-0.423333 -0.02963,-0.5206995 l -0.0042,-0.021167 Q 13.23291,4.3924578 12.99161,4.3924578 q -0.1397,0 -0.224366,0.080433 -0.08467,0.080433 -0.08467,0.1566332 0,0.042333 0.1016,0.0508 0.1524,0.0127 0.1524,0.1862666 0,0.093133 -0.0635,0.1566332 -0.05927,0.059267 -0.156633,0.059267 -0.122767,0 -0.2032,-0.071967 -0.0762,-0.0762 -0.0762,-0.1904999 0,-0.1820331 0.182033,-0.3301997 0.182033,-0.1481665 0.478366,-0.1481665 0.440267,0 0.613833,0.1566332 0.1397,0.1312332 0.1397,0.4571996 v 0.7238994 q 0,0.2116665 0.0042,0.2455331 0.02117,0.1777999 0.122767,0.1777999 0.07197,0 0.1778,-0.1016 0.02117,-0.021167 0.03387,-0.021167 0.02117,0 0.02117,0.021167 z M 13.326043,5.4973569 V 5.2899237 Q 12.91541,5.370357 12.91541,5.75559 q 0,0.2963331 0.2032,0.2963331 0.1143,0 0.160867,-0.1269999 0.04657,-0.1269999 0.04657,-0.4275663 z"
         style="font-weight:bold;font-family:'Bodoni 72';-inkscape-font-specification:'Bodoni 72 Bold'"
         id="path14864" />
      <path
         d="m 15.054564,3.5161586 q 0,0.1185332 -0.08043,0.2031998 -0.08043,0.084667 -0.194733,0.084667 -0.118533,0 -0.198966,-0.080433 -0.08043,-0.080433 -0.08043,-0.2031998 0,-0.1185332 0.08043,-0.1947332 0.08043,-0.0762 0.207433,-0.0762 0.1143,0 0.1905,0.0762 0.0762,0.0762 0.0762,0.1904999 z m 0.3048,2.683931 q 0,0.029633 -0.0381,0.029633 l -0.563033,-0.00847 -0.406399,0.00847 q -0.0254,0 -0.0635,0.00423 -0.03387,0 -0.0381,0 -0.0508,0 -0.0508,-0.033867 0,-0.0254 0.09737,-0.029633 0.143934,-0.00423 0.169334,-0.029633 0.0254,-0.029633 0.0254,-0.1693332 V 4.7565242 q 0,-0.1608665 -0.02963,-0.1904999 -0.0254,-0.033867 -0.1651,-0.033867 -0.0889,0 -0.105833,-0.00423 -0.0127,-0.00423 -0.0127,-0.029633 0,-0.029633 0.0635,-0.029633 0.465666,-0.00423 0.795866,-0.1439333 0.0085,0.0508 0.02117,0.2793998 l 0.0042,0.5376329 v 0.795866 q 0,0.1735665 0.02963,0.2031998 0.03387,0.029633 0.220134,0.029633 0.04657,0 0.04657,0.029633 z"
         style="font-weight:bold;font-family:'Bodoni 72';-inkscape-font-specification:'Bodoni 72 Bold'"
         id="path14866" />
      <path
         d="m 17.666595,6.2000896 q 0,0.033867 -0.105833,0.033867 -0.0085,0 -0.110067,-0.00423 -0.1016,-0.00423 -0.296333,-0.00423 h -0.135466 l -0.364067,0.00423 q -0.05927,0 -0.05927,-0.033867 0,-0.029633 0.0508,-0.029633 h 0.03387 q 0.110067,0 0.127,-0.0254 0.02117,-0.029633 0.02117,-0.1904998 V 5.1332905 q 0,-0.4529663 -0.05927,-0.5418662 -0.0508,-0.0762 -0.182033,-0.0762 -0.131233,0 -0.2159,0.080433 -0.08467,0.080433 -0.08467,0.2031998 l 0.0042,1.2826989 q 0.0085,0.0508 0.03387,0.067733 0.02963,0.0127 0.139699,0.016933 0.03387,0 0.03387,0.0254 0,0.0254 -0.02963,0.029633 -0.02963,0.00423 -0.211667,0.00423 -0.182033,0 -0.300566,0.00423 -0.232833,0.00847 -0.474133,0.00847 -0.0508,0 -0.0508,-0.029633 0,-0.033867 0.127,-0.033867 0.131233,0 0.1524,-0.0508 l 0.0127,-0.059267 V 5.0909572 q 0,-0.410633 -0.0085,-0.4275663 -0.0127,-0.0635 -0.1143,-0.0635 -0.05503,0 -0.09737,0.00423 h -0.04657 q -0.06773,0 -0.06773,-0.029633 0,-0.029633 0.0508,-0.033867 0.474133,-0.021167 0.757766,-0.1989665 0.03387,-0.016933 0.04657,-0.016933 0.03387,0 0.03387,0.067733 0,0.1862665 -0.0042,0.2412998 0.224366,-0.2920997 0.575732,-0.2920997 0.364067,0 0.474133,0.2539998 0.04657,0.1058332 0.05503,0.2370664 0.0127,0.1312332 0.0127,0.5418662 v 0.6138328 q 0,0.1312333 0.02117,0.1566333 0.02117,0.021167 0.135467,0.021167 0.118533,0 0.118533,0.033867 z"
         style="font-weight:bold;font-family:'Bodoni 72';-inkscape-font-specification:'Bodoni 72 Bold'"
         id="path14868" />
      <path
         d="m 19.469861,5.7090234 q 0,0.093133 -0.110066,0.2455331 -0.237067,0.3259664 -0.618066,0.3259664 -0.427567,0 -0.702733,-0.2709331 -0.275167,-0.2709331 -0.275167,-0.6942661 0,-0.4148663 0.2667,-0.6900327 0.2667,-0.2793998 0.664633,-0.2793998 0.270933,0 0.461433,0.1185332 0.211666,0.1312333 0.275166,0.3767664 0.01693,0.0762 0.0254,0.1820332 -0.09737,0.00847 -0.783166,0.0127 -0.105833,0 -0.266699,0.00847 -0.0127,0.1523999 -0.0127,0.2582331 0,0.4952996 0.207433,0.7027328 0.122766,0.1227665 0.300566,0.1227665 0.148167,0 0.283633,-0.1015999 0.1397,-0.1015999 0.211667,-0.2624664 0.03387,-0.080433 0.05503,-0.080433 0.01693,0 0.01693,0.0254 z M 18.936462,4.972424 q 0.0042,-0.3259664 -0.04657,-0.4529663 -0.0508,-0.1269999 -0.1778,-0.1269999 -0.258233,0 -0.296333,0.5799662 0.0889,-0.00423 0.372533,-0.00423 0.08467,0 0.148167,0.00423 z"
         style="font-weight:bold;font-family:'Bodoni 72';-inkscape-font-specification:'Bodoni 72 Bold'"
         id="path14870" />
      <path
         d="m 20.724846,6.1958563 q 0,0.033867 -0.160867,0.033867 -0.0381,0 -0.237066,-0.00847 -0.1016,-0.00423 -0.198967,-0.00423 -0.09313,0 -0.347133,0.00847 l -0.127,0.00423 q -0.09313,0.00423 -0.09313,-0.029633 0,-0.033867 0.09737,-0.029633 0.148166,0.00423 0.169333,-0.029633 0.0254,-0.033867 0.0254,-0.2539998 V 3.6558584 q 0,-0.1439332 -0.02963,-0.1693331 -0.02963,-0.029633 -0.173567,-0.029633 -0.105833,0 -0.105833,-0.029633 0,-0.033867 0.110066,-0.0381 0.474133,-0.016933 0.7747,-0.1439332 -0.0042,0.1269998 -0.0042,1.4858987 v 1.0540991 q 0,0.2878664 0.0127,0.3386664 0.01693,0.046567 0.105834,0.042333 l 0.127,-0.00423 q 0.05503,0 0.05503,0.033867 z"
         style="font-weight:bold;font-family:'Bodoni 72';-inkscape-font-specification:'Bodoni 72 Bold'"
         id="path14872" />
    </g>
  </g>
</svg>
