<svg width="161" height="145" viewBox="0 0 161 145" fill="none" xmlns="http://www.w3.org/2000/svg">
<path fill-rule="evenodd" clip-rule="evenodd" d="M77.9459 120.04C76.5356 120.269 75.2624 120.919 74.3124 121.897C73.6058 122.623 73.1382 123.461 72.9028 124.421C72.8307 124.715 72.8198 124.909 72.8042 126.181L72.7866 127.61H72.0397H71.2929V129.322V131.034H72.0431H72.7933V135.118V139.203H74.8859H76.9785V135.118V131.034H78.1631H79.3476V129.322V127.61H78.1631H76.9785V126.343C76.9785 125.092 76.9798 125.072 77.078 124.784C77.3062 124.114 77.75 123.668 78.3728 123.481C78.5872 123.416 78.7166 123.403 79.0099 123.416C79.3398 123.43 79.4096 123.447 79.6833 123.58C80.1922 123.828 80.553 124.257 80.7736 124.877C80.8278 125.029 80.8609 125.249 80.8763 125.558L80.899 126.016H82.9661H85.0332V125.517C85.0332 124.964 84.9569 124.443 84.81 123.994C84.6686 123.561 84.3249 122.892 84.0402 122.496C83.7219 122.053 83.1348 121.478 82.659 121.143C82.2275 120.839 81.494 120.47 80.9802 120.3C80.2938 120.071 79.9567 120.019 79.0712 120.003C78.5222 119.993 78.1601 120.005 77.9459 120.04ZM58.5001 129.828V139.203H60.573H62.6459V129.828V120.453H60.573H58.5001V129.828ZM13.83 120.942C13.5275 121.014 13.1231 121.226 12.8679 121.446C12.6103 121.668 12.3013 122.12 12.187 122.442C12.131 122.6 12.0916 122.824 12.0783 123.061C12.0616 123.359 12.0738 123.495 12.1402 123.754C12.1857 123.932 12.2796 124.174 12.3488 124.293C12.5256 124.598 12.9212 124.997 13.2176 125.17C13.6019 125.395 13.9133 125.479 14.377 125.482C14.8127 125.485 15.0916 125.422 15.4608 125.238C15.9166 125.011 16.3209 124.6 16.5429 124.137C16.5971 124.024 16.6715 123.786 16.7082 123.607C16.7851 123.233 16.7651 122.879 16.6455 122.5C16.4166 121.774 15.7278 121.135 14.961 120.938C14.6823 120.867 14.138 120.869 13.83 120.942ZM67.0484 120.92C66.6062 121.007 66.1405 121.279 65.8112 121.643C65.5736 121.906 65.3564 122.297 65.2727 122.614C65.2395 122.739 65.2124 122.998 65.2124 123.188C65.2124 123.822 65.401 124.284 65.8497 124.751C66.1528 125.066 66.4979 125.282 66.8904 125.403C67.267 125.518 67.8088 125.518 68.1934 125.402C68.4913 125.312 68.8465 125.118 69.0758 124.92C69.4221 124.62 69.7023 124.185 69.8126 123.776C69.848 123.644 69.875 123.384 69.8756 123.168C69.8764 122.852 69.8582 122.738 69.7631 122.466C69.7007 122.287 69.5828 122.042 69.5012 121.921C69.1937 121.465 68.644 121.078 68.1088 120.942C67.8542 120.878 67.3216 120.866 67.0484 120.92ZM120.667 121.738C118.748 121.929 117.272 122.749 116.361 124.129C116.097 124.53 115.948 124.825 115.796 125.249C115.581 125.849 115.51 126.27 115.487 127.085C115.471 127.659 115.48 127.923 115.531 128.263C115.638 128.979 115.796 129.392 116.181 129.962C116.405 130.295 116.869 130.762 117.213 131C117.59 131.262 118.059 131.517 118.417 131.657C118.59 131.725 119.177 131.929 119.72 132.111C121.338 132.653 121.796 132.845 122.236 133.167C122.618 133.448 122.802 133.862 122.772 134.377C122.75 134.75 122.629 135.02 122.349 135.322C122.117 135.571 121.809 135.739 121.398 135.843C121.052 135.929 120.266 135.929 119.808 135.842C118.899 135.67 117.906 135.176 116.996 134.441C116.784 134.27 116.673 134.203 116.655 134.235C116.405 134.683 114.765 137.743 114.765 137.761C114.765 137.813 115.602 138.303 116.206 138.602C117.159 139.076 118.093 139.379 119.147 139.557C119.511 139.618 119.877 139.645 120.54 139.659C121.54 139.681 122.064 139.642 122.791 139.491C123.65 139.312 124.563 138.945 125.224 138.513C125.411 138.391 125.742 138.116 125.96 137.901C126.713 137.159 127.155 136.332 127.405 135.196C127.484 134.839 127.495 134.678 127.495 133.912C127.495 133.167 127.483 132.982 127.413 132.668C127.302 132.173 127.097 131.648 126.862 131.259C126.599 130.823 125.891 130.119 125.386 129.79C124.629 129.298 123.835 128.975 122.03 128.428C121.262 128.195 120.889 128.008 120.565 127.693C120.34 127.475 120.288 127.4 120.231 127.205C120.184 127.043 120.171 126.906 120.188 126.748C120.233 126.324 120.42 126.016 120.772 125.784C121.078 125.583 121.356 125.484 121.772 125.43C122.029 125.396 122.209 125.396 122.496 125.429C123.202 125.512 124.118 125.885 124.742 126.345L125.027 126.555L125.676 125.303C126.534 123.647 126.814 123.092 126.8 123.079C126.756 123.04 126.085 122.727 125.768 122.597C124.947 122.261 123.791 121.949 122.859 121.813C122.24 121.723 121.179 121.687 120.667 121.738ZM154.15 121.738C153.652 121.787 153.027 121.915 152.617 122.05C151.832 122.309 151.102 122.741 150.56 123.268C150.168 123.65 149.943 123.936 149.673 124.401C149.432 124.815 149.259 125.239 149.132 125.732C148.98 126.32 148.946 126.703 148.969 127.531C148.992 128.328 149.052 128.701 149.235 129.18C149.425 129.68 149.852 130.29 150.276 130.669C150.601 130.96 151.142 131.313 151.579 131.518C151.777 131.611 152.445 131.857 153.064 132.065C154.349 132.496 155.076 132.772 155.383 132.945C155.705 133.127 156.04 133.452 156.148 133.688C156.226 133.86 156.242 133.957 156.242 134.282C156.242 134.634 156.231 134.693 156.126 134.904C156.063 135.033 155.911 135.235 155.791 135.354C155.547 135.595 155.266 135.745 154.88 135.842C154.535 135.93 153.75 135.93 153.29 135.842C152.383 135.671 151.407 135.185 150.478 134.445C150.304 134.306 150.159 134.195 150.156 134.199C150.132 134.22 148.247 137.735 148.247 137.757C148.247 137.818 149.134 138.334 149.767 138.641C150.814 139.15 151.875 139.466 153.018 139.609C153.577 139.679 154.868 139.69 155.413 139.63C156.987 139.457 158.436 138.853 159.376 137.98C159.658 137.719 160.038 137.234 160.263 136.85C160.364 136.678 160.517 136.351 160.605 136.122C160.89 135.374 161 134.757 161 133.899C161 132.707 160.708 131.716 160.135 130.967C159.86 130.608 159.386 130.152 159.026 129.9C158.221 129.337 157.483 129.028 155.512 128.428C154.781 128.206 154.387 128.013 154.073 127.723C153.878 127.544 153.797 127.436 153.733 127.267C153.667 127.096 153.652 126.989 153.666 126.79C153.701 126.298 153.981 125.896 154.454 125.661C154.925 125.427 155.472 125.355 156.084 125.446C156.786 125.551 157.541 125.866 158.186 126.324L158.51 126.555L159.403 124.824C159.895 123.871 160.29 123.085 160.281 123.076C160.22 123.017 159.193 122.569 158.769 122.418C158.102 122.179 157.051 121.917 156.358 121.816C155.724 121.724 154.666 121.686 154.15 121.738ZM130.348 122.19C130.304 122.233 130.317 132.19 130.362 132.901C130.459 134.427 130.722 135.524 131.229 136.519C131.496 137.042 131.763 137.402 132.213 137.846C133.228 138.85 134.539 139.398 136.441 139.613C136.897 139.665 137.242 139.674 138.139 139.659C139.28 139.639 139.655 139.602 140.449 139.434C141.007 139.316 141.511 139.141 142.069 138.874C142.352 138.738 142.734 138.517 142.918 138.383C143.579 137.901 144.159 137.219 144.534 136.482C144.752 136.053 144.946 135.515 145.083 134.963C145.223 134.394 145.306 133.856 145.363 133.158C145.388 132.846 145.404 130.67 145.404 127.41V122.164L143.163 122.174L140.923 122.184L140.9 127.552C140.883 131.444 140.864 133.006 140.829 133.232C140.765 133.648 140.65 134.058 140.513 134.352C140.291 134.829 139.865 135.276 139.415 135.501C139.324 135.547 139.111 135.623 138.941 135.671C138.668 135.749 138.546 135.759 137.882 135.757C137.236 135.755 137.088 135.743 136.816 135.67C136.642 135.623 136.404 135.538 136.287 135.482C136.018 135.352 135.554 134.92 135.38 134.636C135.233 134.396 135.062 133.931 134.955 133.485C134.892 133.216 134.884 132.758 134.864 127.688L134.842 122.184L132.608 122.174C131.38 122.168 130.362 122.175 130.348 122.19ZM5.26687 127.223C4.78899 127.272 4.17546 127.4 3.76763 127.534C3.36754 127.665 2.86463 127.907 2.5413 128.123C2.23451 128.328 1.84074 128.696 1.61762 128.986C1.38012 129.295 1.08052 129.915 0.966096 130.334C0.888037 130.619 0.875718 130.759 0.874968 131.364C0.874178 131.977 0.885233 132.103 0.963095 132.368C1.32011 133.585 2.18385 134.174 4.2778 134.627C5.10352 134.805 5.53251 134.935 5.75682 135.075C5.89971 135.165 5.95037 135.227 6.00138 135.374C6.08465 135.615 6.08157 135.8 5.99096 135.996C5.8947 136.205 5.67067 136.382 5.37904 136.479C5.1997 136.539 5.03972 136.558 4.71994 136.558C4.23488 136.558 3.79353 136.485 3.30393 136.323C2.8287 136.166 2.4484 135.99 1.92603 135.684C1.68024 135.541 1.46888 135.433 1.45633 135.445C1.44377 135.458 1.10006 136.103 0.692553 136.878C0.0191572 138.16 -0.042319 138.294 0.0177752 138.341C0.141596 138.439 1.26704 138.963 1.65761 139.105C2.2051 139.304 2.99994 139.497 3.57199 139.569C4.18943 139.647 5.13641 139.648 5.73795 139.571C6.93616 139.417 8.04388 138.998 8.76142 138.425C8.9383 138.284 9.20517 138.021 9.35454 137.84C9.68332 137.441 10.0096 136.803 10.1391 136.305C10.2162 136.008 10.2301 135.857 10.2298 135.313C10.2295 134.818 10.2129 134.609 10.1575 134.399C10.002 133.81 9.62378 133.218 9.15862 132.834C8.65524 132.419 7.95389 132.098 7.13176 131.908C5.68677 131.573 5.42346 131.502 5.25305 131.404C5.0561 131.29 4.96 131.127 4.96039 130.909C4.96095 130.568 5.13803 130.311 5.46855 130.172C5.56588 130.131 5.77561 130.077 5.93465 130.053C6.48194 129.969 7.37585 130.131 8.11858 130.448C8.32461 130.536 8.49849 130.594 8.50497 130.578C8.51148 130.561 8.82601 129.961 9.20391 129.245C9.70117 128.302 9.87715 127.934 9.84078 127.914C9.81314 127.899 9.52543 127.799 9.20146 127.693C8.18594 127.361 7.41601 127.23 6.32235 127.204C5.93146 127.195 5.45651 127.203 5.26687 127.223ZM49.3597 127.319C48.8746 127.397 48.518 127.506 48.0899 127.709C47.6566 127.915 47.1895 128.254 46.8595 128.601L46.6175 128.856L46.6066 128.243L46.5958 127.63L44.513 127.62L42.4303 127.61V136.305V145L44.513 144.99L46.5958 144.98L46.6155 141.545L46.6353 138.109L46.7735 138.251C47.0118 138.496 47.4931 138.83 47.901 139.035C48.529 139.35 49.0272 139.487 49.7862 139.552C50.2874 139.596 50.9938 139.554 51.4906 139.453C52.1369 139.32 52.8793 139.011 53.4407 138.64C54.0511 138.236 54.6476 137.643 55.0827 137.005C55.3177 136.661 55.6559 135.979 55.8126 135.534C56.0807 134.772 56.1992 133.811 56.1299 132.961C56.0784 132.328 55.975 131.82 55.7922 131.3C55.5938 130.736 55.3859 130.313 55.0917 129.874C54.4734 128.952 53.7251 128.314 52.6932 127.828C51.8345 127.424 51.3167 127.301 50.3665 127.278C49.9148 127.268 49.606 127.28 49.3597 127.319ZM92.9695 127.316C91.8542 127.474 90.7975 127.877 89.9721 128.458C89.5018 128.789 88.8756 129.402 88.56 129.841C88.2509 130.271 87.9237 130.9 87.7427 131.414C87.6651 131.634 87.5617 132.01 87.5127 132.25C87.4384 132.615 87.4236 132.815 87.4229 133.465C87.4222 134.063 87.4391 134.333 87.4958 134.632C87.6898 135.654 88.1508 136.599 88.8648 137.437C89.351 138.007 89.9523 138.466 90.7157 138.85C91.5305 139.259 92.3211 139.474 93.2989 139.551C93.8813 139.598 94.4954 139.558 95.1193 139.433C95.5176 139.354 96.3436 139.099 96.602 138.976L96.7402 138.911L96.7505 137.219C96.7561 136.288 96.7523 135.505 96.742 135.479C96.7295 135.446 96.6403 135.487 96.475 135.6C96.1499 135.823 95.9058 135.941 95.4964 136.074C95.1923 136.173 95.1071 136.184 94.5883 136.185C94.1562 136.186 93.9529 136.17 93.7591 136.117C93.3638 136.01 92.8873 135.761 92.6191 135.522C92.3081 135.245 92.0078 134.792 91.8736 134.399C91.7758 134.112 91.7674 134.037 91.7664 133.446C91.7653 132.875 91.7754 132.773 91.8573 132.531C92.0327 132.013 92.358 131.561 92.7802 131.248C93.3247 130.845 93.8284 130.681 94.5291 130.68C95.214 130.679 95.771 130.828 96.374 131.171C96.5418 131.267 96.6975 131.345 96.7199 131.345C96.7476 131.345 96.7574 130.789 96.7504 129.624L96.7402 127.902L96.523 127.797C96.208 127.643 95.6492 127.465 95.1982 127.375C94.6816 127.271 93.5081 127.24 92.9695 127.316ZM103.867 127.285C103.523 127.328 103.041 127.429 102.747 127.519C102.305 127.655 101.703 127.946 101.259 128.238C100.769 128.56 100.092 129.226 99.7651 129.709C98.7945 131.144 98.4411 132.782 98.7202 134.551C98.8142 135.146 98.9917 135.714 99.2468 136.236C99.5834 136.925 99.895 137.354 100.47 137.921C100.988 138.431 101.381 138.716 101.952 138.998C102.598 139.317 103.247 139.487 104.076 139.554C104.663 139.602 105.33 139.551 105.867 139.417C106.31 139.306 106.895 139.04 107.257 138.786C107.401 138.685 107.666 138.455 107.845 138.276L108.171 137.95V138.576V139.203H110.263H112.356L112.346 133.416L112.336 127.63L110.253 127.62L108.171 127.61V128.178V128.747L107.904 128.517C107.758 128.391 107.567 128.234 107.48 128.168C107.208 127.963 106.704 127.694 106.354 127.569C105.769 127.358 105.415 127.297 104.676 127.282C104.307 127.274 103.943 127.275 103.867 127.285ZM34.415 127.473C33.7677 127.578 33.1431 127.819 32.6185 128.167C32.2897 128.385 31.8032 128.855 31.5223 129.225C31.3925 129.396 31.2732 129.536 31.2572 129.536C31.2412 129.536 31.1206 129.395 30.9892 129.224C30.7039 128.851 30.2214 128.389 29.8942 128.176C29.3685 127.833 28.8271 127.623 28.1881 127.513C27.7501 127.438 26.8263 127.438 26.3884 127.513C25.4567 127.673 24.6154 128.074 23.8038 128.745L23.478 129.015V128.312V127.61L21.3953 127.62L19.3125 127.63L19.3025 133.416L19.2925 139.203H21.3853H23.478V136.134C23.478 134.293 23.4945 132.904 23.5191 132.662C23.5715 132.148 23.6519 131.824 23.814 131.475C24.0371 130.995 24.3816 130.709 24.8653 130.605C25.1735 130.538 25.887 130.574 26.1376 130.669C26.38 130.761 26.6081 130.952 26.7399 131.174C26.8939 131.433 27.0207 131.839 27.0889 132.292C27.1403 132.633 27.15 133.214 27.15 135.95V139.203H29.2408H31.3316L31.3458 135.926C31.3584 133.017 31.3675 132.618 31.4265 132.376C31.6 131.668 31.8267 131.251 32.1842 130.986C32.457 130.783 32.7552 130.679 33.14 130.655C33.7319 130.617 34.212 130.774 34.4773 131.093C34.6704 131.325 34.8335 131.7 34.9335 132.142C35.0201 132.525 35.0218 132.586 35.0364 135.867L35.0512 139.203H37.1416H39.2321L39.2307 135.478C39.2299 133.43 39.2133 131.526 39.1937 131.248C39.1533 130.674 39.0742 130.251 38.9278 129.828C38.6526 129.032 38.1821 128.415 37.5364 128.004C37.2363 127.813 36.7676 127.63 36.3128 127.527C35.8618 127.425 34.8804 127.397 34.415 127.473ZM12.3436 133.407V139.203H14.4165H16.4894V133.407V127.61H14.4165H12.3436V133.407ZM65.4888 133.407V139.203H67.5617H69.6346V133.407V127.61H67.5617H65.4888V133.407ZM80.8874 133.407V139.203H82.9603H85.0332V133.407V127.61H82.9603H80.8874V133.407ZM49.6755 130.858C49.8304 130.89 50.1295 131.002 50.3559 131.112C50.67 131.265 50.8194 131.367 51.0273 131.57C51.3145 131.851 51.4934 132.143 51.6567 132.6C51.7326 132.812 51.7624 132.987 51.7773 133.31C51.7922 133.632 51.781 133.801 51.7322 133.991C51.5914 134.538 51.2242 135.119 50.8063 135.456C50.5493 135.664 50.1341 135.868 49.7956 135.954C49.6561 135.989 49.3885 136.013 49.1387 136.013C48.8152 136.013 48.6437 135.992 48.4015 135.923C47.9831 135.804 47.5619 135.553 47.2473 135.236C46.9463 134.933 46.7675 134.651 46.6264 134.256C46.4934 133.885 46.4612 133.287 46.5515 132.867C46.6697 132.318 47.0825 131.664 47.5097 131.349C47.8106 131.127 48.2352 130.929 48.5531 130.861C48.8878 130.789 49.3338 130.788 49.6755 130.858ZM106.472 130.94C106.879 131.074 107.306 131.347 107.577 131.647C107.687 131.768 107.857 132.02 107.955 132.208C108.392 133.04 108.395 133.804 107.967 134.624C107.844 134.859 107.715 135.028 107.478 135.263C107.219 135.521 107.093 135.613 106.825 135.739C106.368 135.953 106.1 136.013 105.606 136.013C105.11 136.012 104.776 135.942 104.4 135.759C103.94 135.535 103.572 135.19 103.303 134.729C103.247 134.633 103.153 134.414 103.095 134.243C102.952 133.824 102.921 133.267 103.016 132.846C103.104 132.458 103.374 131.929 103.629 131.649C103.858 131.396 104.261 131.118 104.578 130.994C104.96 130.845 105.24 130.801 105.703 130.816C106.048 130.827 106.206 130.853 106.472 130.94Z" fill="black"/>
<path fill-rule="evenodd" clip-rule="evenodd" d="M130.311 92.3662C128.949 95.9939 125.036 99.1751 121.133 99.828C117.88 100.372 114.669 99.6176 112.037 97.6915C108.681 95.2355 107.269 92.408 107.232 88.067C107.195 83.7712 107.969 82.2786 112.804 77.3279C117.977 72.0295 119.368 69.894 120.909 64.8762C122.021 61.2561 122.088 55.7842 121.066 51.9767C119.21 45.065 114.062 38.9173 107.872 36.2221C100.608 33.0592 92.8712 33.2927 86.0749 36.8803C82.793 38.6127 81.5444 39.6412 75.5102 45.5828C69.583 51.4194 68.3355 52.1761 64.6226 52.187C61.6456 52.196 59.4566 51.281 57.3574 49.1508C54.8932 46.6501 53.9135 43.5343 54.5201 40.1288C54.6989 39.1253 55.197 37.707 55.6276 36.9772C56.0579 36.2473 64.0955 28.0172 73.4889 18.6877C89.6619 2.62458 90.6716 1.68738 92.5308 1.00795C94.4256 0.315582 94.9697 0.290703 108.062 0.29966C121.172 0.308289 121.696 0.33284 123.57 1.03085C126.243 2.02676 129.284 5.05466 130.281 7.71266L131 9.63251V50.0814C131 90.1776 130.994 90.5462 130.311 92.3662Z" fill="black"/>
<path fill-rule="evenodd" clip-rule="evenodd" d="M31.6892 7.6338C33.0506 4.00609 36.9637 0.82492 40.8669 0.172031C44.1201 -0.37171 47.3314 0.382362 49.9634 2.30852C53.3195 4.76448 54.7308 7.592 54.7681 11.933C54.805 16.2288 54.0306 17.7214 49.1963 22.6721C44.0226 27.9705 42.6323 30.106 41.0908 35.1238C39.9787 38.7439 39.9121 44.2158 40.9344 48.0233C42.79 54.935 47.9384 61.0827 54.1281 63.7779C61.392 66.9408 69.1288 66.7073 75.9251 63.1197C79.207 61.3873 80.4556 60.3588 86.4898 54.4172C92.417 48.5806 93.6646 47.8239 97.3774 47.813C100.354 47.804 102.543 48.719 104.643 50.8492C107.107 53.3499 108.087 56.4657 107.48 59.8712C107.301 60.8747 106.803 62.293 106.372 63.0228C105.942 63.7527 97.9045 71.9828 88.5111 81.3123C72.3381 97.3754 71.3284 98.3126 69.4692 98.9921C67.5744 99.6844 67.0303 99.7093 53.9378 99.7003C40.828 99.6917 40.3045 99.6672 38.4303 98.9692C35.7567 97.9732 32.7158 94.9453 31.7195 92.2873L31 90.3675V49.9186C31 9.82237 31.006 9.45379 31.6892 7.6338Z" fill="black"/>
</svg>
