<svg width="527" height="100" viewBox="0 0 527 100" fill="none" xmlns="http://www.w3.org/2000/svg">
<path fill-rule="evenodd" clip-rule="evenodd" d="M317.043 21.1026C313.478 21.6879 310.26 23.3534 307.858 25.8554C306.072 27.716 304.89 29.8595 304.295 32.3167C304.112 33.0694 304.085 33.5682 304.045 36.823L304.001 40.4828H302.113H300.225V44.8646V49.2465H302.121H304.018V59.7031V70.1597H309.308H314.598V59.7031V49.2465H317.592H320.587V44.8646V40.4828H317.592H314.598V37.2388C314.598 34.0363 314.601 33.9854 314.849 33.2476C315.426 31.5329 316.548 30.3892 318.123 29.9108C318.665 29.7462 318.992 29.7125 319.733 29.7448C320.567 29.7812 320.744 29.8248 321.435 30.166C322.722 30.8003 323.634 31.8986 324.192 33.4843C324.329 33.8742 324.412 34.4362 324.451 35.2296L324.509 36.3997H329.734H334.96V35.1226C334.96 33.7075 334.767 32.3741 334.396 31.2238C334.038 30.116 333.169 28.4047 332.449 27.3905C331.645 26.2568 330.161 24.7839 328.958 23.9255C327.867 23.147 326.013 22.2039 324.714 21.7668C322.979 21.1829 322.127 21.0491 319.888 21.0085C318.5 20.9834 317.585 21.0136 317.043 21.1026ZM267.885 46.1593V70.1597H273.126H278.366V46.1593V22.1588H273.126H267.885V46.1593ZM154.962 23.412C154.197 23.5967 153.175 24.1388 152.529 24.702C151.878 25.2703 151.097 26.4277 150.808 27.2519C150.667 27.6553 150.567 28.2299 150.533 28.8353C150.491 29.5982 150.522 29.9484 150.69 30.6108C150.805 31.0647 151.042 31.6858 151.217 31.9909C151.664 32.7701 152.664 33.7926 153.414 34.2363C154.385 34.8115 155.172 35.0257 156.344 35.034C157.446 35.0418 158.151 34.8811 159.084 34.4099C160.236 33.828 161.258 32.775 161.82 31.5911C161.957 31.3023 162.145 30.6919 162.237 30.2346C162.432 29.2768 162.381 28.3701 162.079 27.3987C161.5 25.5403 159.759 23.9061 157.821 23.4023C157.116 23.2193 155.74 23.224 154.962 23.412ZM289.495 23.3555C288.377 23.5778 287.2 24.2747 286.367 25.2066C285.767 25.8789 285.218 26.8812 285.006 27.691C284.922 28.0125 284.854 28.6741 284.854 29.1613C284.854 30.7843 285.33 31.9683 286.465 33.1626C287.231 33.9694 288.103 34.5223 289.096 34.8304C290.048 35.126 291.417 35.1253 292.39 34.8286C293.143 34.5989 294.04 34.1021 294.62 33.5944C295.496 32.8272 296.204 31.7134 296.483 30.6654C296.572 30.3283 296.64 29.6624 296.642 29.1097C296.644 28.2999 296.598 28.0088 296.358 27.3127C296.2 26.8558 295.902 26.2284 295.696 25.9184C294.918 24.7498 293.529 23.7603 292.176 23.4121C291.532 23.2465 290.186 23.2181 289.495 23.3555ZM425.041 25.4486C420.189 25.9395 416.457 28.0382 414.156 31.5698C413.487 32.5967 413.111 33.3509 412.727 34.438C412.183 35.9743 412.005 37.0502 411.945 39.1384C411.904 40.6061 411.929 41.2821 412.057 42.1521C412.327 43.9851 412.726 45.0426 413.7 46.5039C414.267 47.3553 415.44 48.5495 416.307 49.159C417.262 49.8297 418.446 50.4841 419.352 50.8416C419.791 51.015 421.273 51.5378 422.646 52.0032C426.737 53.3911 427.894 53.8833 429.005 54.7083C429.973 55.4271 430.437 56.487 430.361 57.8045C430.305 58.7602 430 59.4519 429.292 60.2235C428.706 60.8614 427.928 61.2931 426.888 61.5576C426.014 61.7795 424.028 61.779 422.868 61.5566C420.571 61.1164 418.061 59.8493 415.761 57.9698C415.224 57.5316 414.943 57.3588 414.898 57.4406C414.265 58.5895 410.119 66.421 410.119 66.4672C410.119 66.6023 412.237 67.8554 413.762 68.6223C416.172 69.8342 418.532 70.6095 421.198 71.0648C422.118 71.2219 423.042 71.291 424.719 71.3281C427.247 71.384 428.572 71.2835 430.408 70.8968C432.582 70.439 434.89 69.5004 436.561 68.394C437.032 68.082 437.869 67.3769 438.42 66.8272C440.323 64.928 441.441 62.809 442.074 59.9023C442.274 58.9874 442.302 58.5765 442.302 56.6159C442.302 54.7087 442.271 54.2344 442.093 53.4291C441.813 52.1618 441.295 50.819 440.701 49.8233C440.036 48.7079 438.247 46.9048 436.969 46.0625C435.056 44.8018 433.049 43.9768 428.485 42.5747C426.543 41.9785 425.601 41.5002 424.781 40.6953C424.213 40.137 424.082 39.943 423.939 39.444C423.82 39.0309 423.787 38.6794 423.829 38.2745C423.943 37.1899 424.415 36.4012 425.307 35.8073C426.08 35.2919 426.781 35.0403 427.833 34.9006C428.483 34.8143 428.937 34.814 429.663 34.8993C431.449 35.1096 433.764 36.0648 435.342 37.2435L436.062 37.7805L437.702 34.5755C439.871 30.3367 440.581 28.9155 440.543 28.8819C440.433 28.7836 438.736 27.9811 437.934 27.6482C435.86 26.7872 432.937 25.9898 430.581 25.6424C429.016 25.4117 426.334 25.3179 425.041 25.4486ZM509.682 25.4486C508.426 25.5757 506.845 25.9019 505.808 26.2476C503.823 26.91 501.979 28.0159 500.607 29.3669C499.616 30.3427 499.048 31.0773 498.365 32.2667C497.756 33.3268 497.32 34.4131 496.999 35.6738C496.615 37.1796 496.528 38.1586 496.587 40.2804C496.644 42.3186 496.796 43.2751 497.257 44.5003C497.74 45.7806 498.818 47.3428 499.889 48.3131C500.713 49.0588 502.08 49.9606 503.184 50.486C503.684 50.724 505.373 51.3539 506.938 51.8858C510.187 52.9904 512.025 53.6969 512.799 54.1393C513.616 54.6051 514.461 55.4364 514.734 56.0423C514.932 56.4805 514.971 56.7289 514.972 57.562C514.972 58.4624 514.944 58.6151 514.679 59.1554C514.518 59.484 514.136 60.0023 513.831 60.307C513.214 60.9222 512.505 61.3073 511.529 61.5567C510.657 61.7796 508.672 61.7796 507.509 61.5566C505.218 61.1173 502.749 59.8748 500.4 57.9782C499.961 57.6237 499.594 57.3402 499.586 57.3482C499.527 57.4033 494.76 66.4021 494.76 66.458C494.76 66.6129 497.004 67.9352 498.603 68.7222C501.249 70.0248 503.933 70.8334 506.822 71.1989C508.234 71.3776 511.498 71.4068 512.876 71.253C516.855 70.8094 520.519 69.2648 522.895 67.0296C523.606 66.3612 524.568 65.1195 525.138 64.1347C525.391 63.6965 525.78 62.858 526.001 62.2714C526.723 60.3572 527 58.7769 527 56.5815C527 53.5299 526.261 50.9918 524.813 49.0757C524.119 48.1562 522.921 46.9882 522.009 46.3429C519.975 44.9022 518.11 44.1113 513.126 42.5759C511.278 42.0067 510.282 41.5128 509.488 40.772C508.996 40.3127 508.792 40.0352 508.629 39.6041C508.463 39.1651 508.425 38.8921 508.46 38.3821C508.547 37.124 509.257 36.0949 510.452 35.4927C511.644 34.8927 513.025 34.7079 514.573 34.9419C516.347 35.2099 518.256 36.0181 519.885 37.1901L520.706 37.7803L522.964 33.3485C524.206 30.911 525.204 28.8981 525.181 28.8753C525.029 28.7231 522.431 27.5767 521.361 27.189C519.674 26.5786 517.016 25.9066 515.265 25.6487C513.662 25.4124 510.987 25.3166 509.682 25.4486ZM449.513 26.6061C449.401 26.7171 449.435 52.206 449.549 54.0266C449.793 57.9322 450.458 60.742 451.741 63.2887C452.416 64.6277 453.09 65.5493 454.227 66.6867C456.794 69.2559 460.108 70.6579 464.916 71.2101C466.069 71.3425 466.942 71.3661 469.208 71.3261C472.093 71.2753 473.041 71.1819 475.047 70.751C476.459 70.4478 477.734 70.0014 479.143 69.3171C479.858 68.9697 480.824 68.4045 481.289 68.0613C482.959 66.8277 484.427 65.0797 485.374 63.1939C485.926 62.0959 486.417 60.7196 486.761 59.3047C487.116 57.8499 487.327 56.4721 487.471 54.6844C487.535 53.8863 487.574 48.316 487.574 39.9696V26.5389L481.909 26.5647L476.245 26.5904L476.188 40.3334C476.146 50.2971 476.097 54.2955 476.009 54.8731C475.848 55.9397 475.556 56.9882 475.211 57.7401C474.65 58.9634 473.572 60.1058 472.435 60.6831C472.205 60.7996 471.666 60.9956 471.237 61.119C470.545 61.3176 470.239 61.3427 468.559 61.3381C466.925 61.3336 466.553 61.3027 465.865 61.1141C465.425 60.9938 464.823 60.7771 464.527 60.6329C463.845 60.3016 462.673 59.1949 462.235 58.4688C461.863 57.853 461.429 56.6627 461.161 55.5204C460.999 54.8325 460.981 53.6611 460.929 40.682L460.874 26.5904L455.227 26.5647C452.121 26.5506 449.55 26.5692 449.513 26.6061ZM133.314 39.4907C132.106 39.6173 130.555 39.9427 129.524 40.2861C128.513 40.623 127.242 41.2419 126.424 41.7954C125.649 42.3206 124.653 43.2626 124.089 44.0051C123.489 44.7955 122.732 46.3815 122.442 47.4539C122.245 48.1859 122.214 48.543 122.212 50.0929C122.21 51.6608 122.238 51.9828 122.435 52.6622C123.337 55.778 125.521 57.2846 130.814 58.4439C132.901 58.9011 133.986 59.2344 134.553 59.5933C134.914 59.8218 135.042 59.9802 135.171 60.3578C135.382 60.9744 135.374 61.4477 135.145 61.9509C134.901 62.4855 134.335 62.9377 133.598 63.1862C133.145 63.3388 132.74 63.3878 131.932 63.3878C130.706 63.3878 129.59 63.2005 128.352 62.7867C127.151 62.3852 126.189 61.9339 124.869 61.1519C124.248 60.7839 123.713 60.5088 123.682 60.5404C123.65 60.5721 122.781 62.2228 121.751 64.2087C120.048 67.4904 119.893 67.8316 120.045 67.953C120.358 68.2031 123.203 69.5451 124.19 69.9085C125.574 70.4178 127.584 70.9113 129.03 71.097C130.591 71.2974 132.985 71.2997 134.505 71.1022C137.534 70.7088 140.335 69.6342 142.148 68.1692C142.596 67.808 143.27 67.1335 143.648 66.6701C144.479 65.65 145.304 64.0158 145.631 62.7405C145.826 61.9813 145.861 61.5931 145.86 60.201C145.86 58.935 145.818 58.3978 145.678 57.8607C145.285 56.3545 144.328 54.8376 143.153 53.8553C141.88 52.7924 140.107 51.9717 138.029 51.4836C134.376 50.6257 133.71 50.4449 133.279 50.193C132.782 49.9019 132.539 49.4859 132.54 48.926C132.541 48.0541 132.989 47.3968 133.824 47.0395C134.07 46.9342 134.6 46.7971 135.003 46.7348C136.386 46.5202 138.646 46.9345 140.523 47.7471C141.044 47.9724 141.484 48.1219 141.5 48.0792C141.517 48.0366 142.312 46.5006 143.267 44.6661C144.524 42.2524 144.969 41.3112 144.877 41.2598C144.807 41.2207 144.08 40.9666 143.261 40.695C140.694 39.8437 138.747 39.5087 135.983 39.4425C134.994 39.4188 133.794 39.4405 133.314 39.4907ZM244.779 39.7377C243.552 39.9357 242.651 40.216 241.569 40.7362C240.473 41.2627 239.293 42.1292 238.458 43.0192L237.847 43.6715L237.819 42.102L237.792 40.5326L232.527 40.5068L227.262 40.481V62.7405V85L232.527 84.9742L237.792 84.9484L237.842 76.1543L237.892 67.3602L238.241 67.7231C238.843 68.349 240.06 69.2056 241.091 69.7296C242.679 70.5364 243.938 70.8865 245.857 71.0543C247.124 71.1652 248.91 71.0593 250.166 70.799C251.8 70.4603 253.676 69.6682 255.095 68.7181C256.639 67.6852 258.146 66.1649 259.246 64.5331C259.84 63.6521 260.695 61.9069 261.091 60.7675C261.769 58.817 262.069 56.3573 261.894 54.1796C261.763 52.5606 261.502 51.2589 261.04 49.9288C260.538 48.4853 260.013 47.402 259.269 46.2785C257.706 43.918 255.814 42.2836 253.206 41.0397C251.035 40.0045 249.726 39.6914 247.324 39.6328C246.182 39.6049 245.402 39.6371 244.779 39.7377ZM355.022 39.7297C352.203 40.1341 349.531 41.1643 347.445 42.6513C346.256 43.4987 344.673 45.069 343.875 46.1925C343.094 47.2929 342.267 48.9048 341.809 50.2196C341.613 50.7823 341.352 51.7458 341.228 52.3607C341.04 53.2945 341.003 53.8073 341.001 55.4706C340.999 57.0021 341.042 57.6925 341.185 58.4583C341.676 61.0751 342.841 63.4929 344.646 65.6379C345.875 67.0984 347.395 68.2736 349.325 69.2553C351.385 70.3031 353.383 70.8528 355.855 71.0516C357.327 71.17 358.88 71.0682 360.457 70.7494C361.464 70.5459 363.552 69.8941 364.205 69.5793L364.554 69.411L364.58 65.0799C364.595 62.6978 364.585 60.6932 364.559 60.6252C364.527 60.5429 364.302 60.6469 363.884 60.9367C363.062 61.5066 362.445 61.8094 361.41 62.1502C360.641 62.4035 360.426 62.4302 359.115 62.4339C358.022 62.437 357.508 62.3942 357.018 62.2598C356.019 61.9853 354.814 61.3486 354.136 60.7363C353.35 60.0266 352.591 58.8683 352.252 57.8607C352.005 57.1262 351.983 56.9359 351.981 55.4209C351.978 53.9604 352.004 53.7001 352.211 53.0806C352.654 51.7533 353.476 50.5951 354.544 49.7946C355.92 48.7622 357.194 48.3436 358.965 48.3413C360.696 48.339 362.104 48.7184 363.629 49.5981C364.053 49.8429 364.446 50.0432 364.503 50.0432C364.573 50.0432 364.598 48.6195 364.58 45.6364L364.554 41.2297L364.005 40.9592C363.209 40.5667 361.796 40.111 360.656 39.8788C359.35 39.6128 356.384 39.5343 355.022 39.7297ZM382.571 39.6489C381.7 39.759 380.482 40.017 379.738 40.2489C378.623 40.5966 377.101 41.3412 375.977 42.0888C374.738 42.9125 373.028 44.6191 372.201 45.8563C369.748 49.5298 368.854 53.7223 369.56 58.2508C369.797 59.7743 370.246 61.2287 370.891 62.5653C371.742 64.3287 372.53 65.4275 373.983 66.8768C375.292 68.1821 376.285 68.9139 377.73 69.6358C379.362 70.4519 381.003 70.8869 383.099 71.0593C384.582 71.1814 386.268 71.0498 387.626 70.7063C388.747 70.4224 390.226 69.7436 391.139 69.093C391.504 68.8332 392.174 68.245 392.627 67.7858L393.45 66.9509V68.5553V70.1597H398.741H404.031L404.006 55.3462L403.98 40.5326L398.715 40.5068L393.45 40.481V41.9362V43.3913L392.776 42.8039C392.406 42.4808 391.923 42.0791 391.703 41.9112C391.016 41.3857 389.742 40.6978 388.859 40.3758C387.379 39.8364 386.483 39.6811 384.617 39.6411C383.684 39.6211 382.763 39.6246 382.571 39.6489ZM207 40.1302C205.363 40.3991 203.784 41.0173 202.458 41.9079C201.627 42.4663 200.397 43.6681 199.687 44.6157C199.359 45.0538 199.057 45.4124 199.017 45.4124C198.976 45.4124 198.671 45.0524 198.339 44.6126C197.618 43.6579 196.398 42.4755 195.571 41.9295C194.242 41.0525 192.873 40.5141 191.258 40.2329C190.151 40.0403 187.816 40.0403 186.709 40.2329C184.353 40.6427 182.227 41.6698 180.175 43.3882L179.351 44.0779V42.2794V40.481L174.086 40.5068L168.821 40.5326L168.796 55.3462L168.77 70.1597H174.061H179.351V62.3029C179.351 57.5913 179.393 54.0332 179.455 53.4148C179.588 52.0985 179.791 51.2698 180.201 50.3765C180.765 49.146 181.636 48.4158 182.858 48.148C183.637 47.9774 185.441 48.0701 186.075 48.3133C186.687 48.5488 187.264 49.0378 187.597 49.6051C187.987 50.268 188.307 51.3071 188.479 52.4664C188.609 53.3394 188.634 54.829 188.634 61.8321V70.1597H193.919H199.205L199.241 61.7695C199.272 54.3245 199.295 53.3009 199.445 52.6835C199.883 50.8688 200.456 49.8037 201.36 49.123C202.05 48.6035 202.804 48.3393 203.776 48.2762C205.273 48.1791 206.486 48.582 207.157 49.3986C207.645 49.9931 208.057 50.9532 208.31 52.0847C208.529 53.0642 208.533 53.2208 208.57 61.6201L208.608 70.1597H213.892H219.177L219.173 60.6243C219.171 55.3797 219.129 50.5062 219.08 49.7942C218.978 48.3252 218.778 47.2434 218.408 46.1593C217.712 44.1216 216.522 42.5426 214.89 41.4899C214.132 41.0007 212.947 40.5336 211.797 40.2703C210.657 40.0093 208.176 39.9368 207 40.1302ZM151.204 55.3213V70.1597H156.444H161.684V55.3213V40.4828H156.444H151.204V55.3213ZM285.552 55.3213V70.1597H290.793H296.033V55.3213V40.4828H290.793H285.552V55.3213ZM324.479 55.3213V70.1597H329.72H334.96V55.3213V40.4828H329.72H324.479V55.3213ZM245.577 48.7975C245.969 48.8789 246.725 49.164 247.297 49.4461C248.091 49.8376 248.469 50.0985 248.994 50.6189C249.72 51.3376 250.173 52.0872 250.585 53.2553C250.778 53.7988 250.853 54.2476 250.891 55.0742C250.928 55.8991 250.9 56.3318 250.777 56.817C250.42 58.2181 249.492 59.7053 248.436 60.5683C247.786 61.0987 246.736 61.6216 245.881 61.841C245.528 61.9315 244.852 61.9936 244.22 61.9936C243.402 61.9936 242.969 61.9399 242.356 61.763C241.299 61.4573 240.234 60.8157 239.439 60.0046C238.678 59.2286 238.226 58.5063 237.869 57.4958C237.533 56.5446 237.452 55.0135 237.68 53.9405C237.979 52.5343 239.022 50.8602 240.102 50.0541C240.863 49.4864 241.936 48.9775 242.74 48.8036C243.586 48.6206 244.713 48.6181 245.577 48.7975ZM389.156 49.0062C390.184 49.3482 391.264 50.0479 391.95 50.8151C392.226 51.125 392.656 51.7716 392.905 52.2521C394.008 54.3836 394.018 56.3371 392.935 58.437C392.624 59.0393 392.299 59.4708 391.7 60.0736C391.043 60.7347 390.725 60.9688 390.047 61.2909C388.893 61.8395 388.215 61.9939 386.966 61.9921C385.713 61.9904 384.868 61.8104 383.918 61.3423C382.756 60.7703 381.825 59.8859 381.145 58.7072C381.003 58.4608 380.766 57.9006 380.619 57.4624C380.259 56.3885 380.179 54.9643 380.419 53.8868C380.641 52.8936 381.325 51.539 381.969 50.8207C382.548 50.1741 383.568 49.462 384.369 49.1445C385.333 48.7629 386.04 48.6493 387.212 48.6882C388.083 48.7172 388.485 48.7828 389.156 49.0062Z" fill="#002F5A"/>
<path fill-rule="evenodd" clip-rule="evenodd" d="M90.1331 99.6753C94.0363 99.0224 97.9494 95.8412 99.3108 92.2135C99.994 90.3935 100 90.0249 100 49.9287V9.47982L99.2805 7.55997C98.2842 4.90197 95.2433 1.87407 92.5697 0.878151C90.6955 0.180144 90.172 0.155591 77.0622 0.146965C63.9697 0.138008 63.4256 0.162888 61.5308 0.855255C59.6716 1.53468 58.6619 2.47189 42.4889 18.535C33.0955 27.8645 25.0579 36.0946 24.6276 36.8245C24.197 37.5543 23.6988 38.9726 23.5201 39.9761C22.9135 43.3816 23.8932 46.4974 26.3574 48.9981C28.4566 51.1283 30.6456 52.0433 33.6226 52.0343C37.3354 52.0234 38.583 51.2667 44.5102 45.4301C50.5444 39.4885 51.793 38.46 55.0749 36.7276C61.8712 33.1401 69.608 32.9065 76.8719 36.0694C83.0616 38.7646 88.21 44.9123 90.0656 51.824C91.0879 55.6315 91.0213 61.1035 89.9092 64.7235C88.3677 69.7413 86.9774 71.8768 81.8037 77.1752C76.9694 82.1259 76.195 83.6185 76.2319 87.9143C76.2692 92.2553 77.6805 95.0828 81.0366 97.5388C83.6686 99.4649 86.8799 100.219 90.1331 99.6753ZM36.8566 99.663C40.1248 98.8953 41.0007 98.1273 58.2952 80.8676C77.1697 62.0307 76.8429 62.4328 76.8429 58.0566C76.8429 49.6955 67.8419 44.8884 60.7321 49.4523C60.0915 49.8637 57.396 52.387 54.7421 55.0596C49.6922 60.1457 46.9171 62.378 44.0037 63.6984C36.6669 67.0242 28.4433 66.6888 21.4742 62.7798C18.5215 61.1234 14.5188 57.2571 12.8376 54.4372C10.2206 50.0481 8.91648 44.2133 9.48054 39.4175C10.2706 32.7008 12.7864 28.0921 18.9211 22.1239C20.4802 20.6074 22.0433 18.8804 22.395 18.2859C25.1421 13.6446 24.5045 7.69565 20.8349 3.72723C20.0902 2.9214 18.4749 1.75331 17.2453 1.13128C15.1897 0.0909041 14.7671 0 11.9904 0C9.25658 0 8.7634 0.101847 6.77405 1.07819C4.16972 2.35643 2.1248 4.43851 0.885201 7.07462L0 8.95731V90.9001L0.865562 92.74C2.49851 96.2105 5.54011 98.7361 9.09019 99.5691C11.2872 100.085 34.7251 100.164 36.8566 99.663Z" fill="#002F5A"/>
<path fill-rule="evenodd" clip-rule="evenodd" d="M99.3108 92.3662C97.9494 95.9939 94.0363 99.1751 90.1331 99.828C86.8799 100.372 83.6686 99.6176 81.0366 97.6915C77.6805 95.2355 76.2692 92.408 76.232 88.067C76.195 83.7712 76.9694 82.2786 81.8037 77.3279C86.9774 72.0295 88.3677 69.894 89.9092 64.8762C91.0213 61.2561 91.0879 55.7842 90.0656 51.9767C88.21 45.065 83.0616 38.9173 76.8719 36.2221C69.608 33.0592 61.8712 33.2927 55.0749 36.8803C51.793 38.6127 50.5444 39.6412 44.5102 45.5828C38.583 51.4194 37.3355 52.1761 33.6226 52.187C30.6456 52.196 28.4566 51.281 26.3574 49.1508C23.8932 46.6501 22.9135 43.5343 23.5201 40.1288C23.6989 39.1253 24.197 37.707 24.6276 36.9772C25.0579 36.2473 33.0955 28.0172 42.4889 18.6877C58.6619 2.62458 59.6716 1.68738 61.5308 1.00795C63.4256 0.315582 63.9697 0.290703 77.0622 0.29966C90.1721 0.308289 90.6955 0.33284 92.5697 1.03085C95.2433 2.02676 98.2842 5.05466 99.2805 7.71266L100 9.63251V50.0814C100 90.1776 99.994 90.5462 99.3108 92.3662Z" fill="#00778C"/>
<path fill-rule="evenodd" clip-rule="evenodd" d="M1.03462 7.93229C2.39602 4.30458 6.30916 1.1234 10.2123 0.470516C13.4656 -0.0732257 16.6769 0.680847 19.3088 2.607C22.6649 5.06296 24.0762 7.89049 24.1135 12.2315C24.1504 16.5273 23.3761 18.0199 18.5418 22.9706C13.3681 28.269 11.9777 30.4045 10.4363 35.4223C9.32414 39.0423 9.25758 44.5143 10.2799 48.3218C12.1355 55.2335 17.2839 61.3812 23.4736 64.0764C30.7374 67.2393 38.4742 67.0057 45.2706 63.4182C48.5524 61.6858 49.801 60.6573 55.8353 54.7156C61.7624 48.8791 63.01 48.1224 66.7228 48.1115C69.6998 48.1025 71.8889 49.0175 73.988 51.1477C76.4523 53.6484 77.432 56.7642 76.8253 60.1697C76.6466 61.1732 76.1484 62.5914 75.7178 63.3213C75.2875 64.0512 67.2499 72.2813 57.8566 81.6108C41.6835 97.6739 40.6739 98.6111 38.8147 99.2905C36.9198 99.9829 36.3757 100.008 23.2832 99.9988C10.1734 99.9902 9.64993 99.9657 7.77572 99.2676C5.10218 98.2717 2.06124 95.2438 1.0649 92.5858L0.345436 90.666V50.2171C0.345436 10.1209 0.351426 9.75228 1.03462 7.93229Z" fill="#002F5A"/>
</svg>
