<svg width="100" height="100" viewBox="0 0 100 100" fill="none" xmlns="http://www.w3.org/2000/svg">
<path fill-rule="evenodd" clip-rule="evenodd" d="M99.3108 92.3662C97.9494 95.9939 94.0363 99.1751 90.1331 99.828C86.8799 100.372 83.6686 99.6176 81.0366 97.6915C77.6805 95.2355 76.2692 92.408 76.232 88.067C76.195 83.7712 76.9694 82.2786 81.8037 77.3279C86.9774 72.0295 88.3677 69.894 89.9092 64.8762C91.0213 61.2561 91.0879 55.7842 90.0656 51.9767C88.21 45.065 83.0616 38.9173 76.8719 36.2221C69.608 33.0592 61.8712 33.2927 55.0749 36.8803C51.793 38.6127 50.5444 39.6412 44.5102 45.5828C38.583 51.4194 37.3355 52.1761 33.6226 52.187C30.6456 52.196 28.4566 51.281 26.3574 49.1508C23.8932 46.6501 22.9135 43.5343 23.5201 40.1288C23.6989 39.1253 24.197 37.707 24.6276 36.9772C25.0579 36.2473 33.0955 28.0172 42.4889 18.6877C58.6619 2.62458 59.6716 1.68738 61.5308 1.00795C63.4256 0.315582 63.9697 0.290703 77.0622 0.29966C90.1721 0.308289 90.6955 0.33284 92.5697 1.03085C95.2433 2.02676 98.2842 5.05466 99.2805 7.71266L100 9.63251V50.0814C100 90.1776 99.994 90.5462 99.3108 92.3662Z" fill="#00305A"/>
<path fill-rule="evenodd" clip-rule="evenodd" d="M0.689184 7.6338C2.05058 4.00609 5.96373 0.82492 9.86689 0.172031C13.1201 -0.37171 16.3314 0.382362 18.9634 2.30852C22.3195 4.76448 23.7308 7.592 23.7681 11.933C23.805 16.2288 23.0306 17.7214 18.1963 22.6721C13.0226 27.9705 11.6323 30.106 10.0908 35.1238C8.9787 38.7439 8.91215 44.2158 9.93444 48.0233C11.79 54.935 16.9384 61.0827 23.1281 63.7779C30.392 66.9408 38.1288 66.7073 44.9251 63.1197C48.207 61.3873 49.4556 60.3588 55.4898 54.4172C61.417 48.5806 62.6646 47.8239 66.3774 47.813C69.3544 47.804 71.5434 48.719 73.6426 50.8492C76.1068 53.3499 77.0865 56.4657 76.4799 59.8712C76.3012 60.8747 75.803 62.293 75.3724 63.0228C74.9421 63.7527 66.9045 71.9828 57.5111 81.3123C41.3381 97.3754 40.3284 98.3126 38.4692 98.9921C36.5744 99.6844 36.0303 99.7093 22.9378 99.7003C9.82795 99.6917 9.30449 99.6672 7.43028 98.9692C4.75674 97.9732 1.71581 94.9453 0.719468 92.2873L0 90.3675V49.9186C0 9.82237 0.00598979 9.45379 0.689184 7.6338Z" fill="#012F5A"/>
</svg>
